<svg width="25" height="24" viewBox="0 0 25 24" fill="none" xmlns="http://www.w3.org/2000/svg">
<path d="M15.3365 22.2543C16.39 22.9339 17.6454 23.2301 18.8916 23.0931C20.1377 22.956 21.2987 22.3941 22.1793 21.5016L22.9491 20.7489C23.2866 20.4036 23.4756 19.9401 23.4756 19.4573C23.4756 18.9746 23.2866 18.5109 22.9491 18.1658L19.6817 14.9325C19.3393 14.5961 18.8786 14.4076 18.3986 14.4076C17.9187 14.4076 17.4579 14.5961 17.1156 14.9325C16.7704 15.27 16.3068 15.4589 15.824 15.4589C15.3412 15.4589 14.8776 15.27 14.5324 14.9325L9.40031 9.80034C9.2291 9.63162 9.09314 9.43055 9.00035 9.20883C8.90755 8.9871 8.85976 8.74913 8.85976 8.50877C8.85976 8.26839 8.90755 8.03043 9.00035 7.80869C9.09314 7.58696 9.2291 7.38589 9.40031 7.21717C9.73672 6.87486 9.92522 6.4141 9.92522 5.93415C9.92522 5.45418 9.73672 4.99344 9.40031 4.65111L6.14999 1.40076C5.80473 1.06327 5.34119 0.874298 4.85844 0.874298C4.37553 0.874298 3.91199 1.06327 3.56673 1.40076L2.81399 2.17059C1.9217 3.05115 1.35976 4.21215 1.22261 5.45833C1.08547 6.70453 1.3817 7.95992 2.06141 9.01342C5.60261 14.2323 10.1084 18.7265 15.3365 22.2543Z" stroke="currentColor" stroke-width="2" stroke-linecap="round" stroke-linejoin="round"/>
</svg>
