<svg width="80" height="80" viewBox="0 0 80 80" fill="none" xmlns="http://www.w3.org/2000/svg">
<path d="M66.6664 13.3335H29.3336C26.4008 13.3335 24 15.7343 24 18.6663H72C72 15.7343 69.5992 13.3335 66.6664 13.3335Z" fill="currentColor"/>
<path d="M44.8752 37.3335C42.792 35.2551 39.4168 35.2519 37.3336 37.3383L18.6664 56.0103V29.3335L8 33.7519V66.6663H18.6664C21.6096 66.6663 24.276 65.4743 26.2088 63.5415L44.8752 44.8807C46.9608 42.7943 46.9608 39.4191 44.8752 37.3335Z" fill="currentColor"/>
<path d="M24 24V43.1328L33.5624 33.568C35.5728 31.552 38.2552 30.44 41.104 30.44C43.9512 30.44 46.6272 31.5472 48.6408 33.5568C50.6616 35.5776 51.7736 38.2576 51.7736 41.1072C51.7736 43.956 50.6616 46.6352 48.6464 48.6512L46.6304 50.6672H66.6664C69.5992 50.6672 72 48.2664 72 45.3344V24H24ZM66.6664 45.3336H57.3336V40H66.6664V45.3336Z" fill="currentColor"/>
</svg>
