<svg width="80" height="80" viewBox="0 0 80 80" fill="none" xmlns="http://www.w3.org/2000/svg">
<path d="M66.6664 8H13.3336C10.4008 8 8 10.4008 8 13.3336V66.6664C8 69.5992 10.4008 72 13.3336 72H66.6664C69.5992 72 72 69.5992 72 66.6664V13.3336C72 10.4008 69.5992 8 66.6664 8ZM19.7712 24.4608L30.4352 35.1272L49.5624 16L53.3336 19.7712L30.4352 42.6696L16 28.232L19.7712 24.4608ZM64 64H16V58.6664H64V64ZM64 53.3336H16V48H64V53.3336ZM64 42.6664H37.9792L43.3128 37.3336H64V42.6664ZM64 32H48.6464L53.9792 26.6664H64V32Z" fill="currentColor"/>
</svg>
