<svg width="80" height="80" viewBox="0 0 80 80" fill="none" xmlns="http://www.w3.org/2000/svg">
<path d="M50.3648 9.7504C47.1096 8.636 43.6328 8 40 8C22.328 8 8 22.328 8 40C8 43.6328 8.6352 47.1096 9.7504 50.3648C14.76 30.44 30.44 14.7624 50.3648 9.7504Z" fill="currentColor"/>
<path d="M47.9979 70.6249C50.0787 68.5465 50.0787 65.1617 48.0003 63.0833L40.4587 55.5409C36.2971 51.3849 36.2971 44.6193 40.4587 40.4577C42.4691 38.4465 45.1427 37.3377 47.9923 37.3329H71.8651C71.5939 34.0641 70.8387 30.9393 69.6619 28.0249C67.9379 28.8409 66.0315 29.3329 64.0003 29.3329C60.2267 29.3329 56.8307 27.7417 54.4043 25.2129C40.0571 28.7649 28.7659 40.0545 25.2139 54.4001C27.7403 56.8297 29.3339 60.2257 29.3339 63.9993C29.3339 66.0305 28.8419 67.9369 28.0259 69.6609C31.7267 71.1561 35.7635 72.0001 40.0003 72.0001C42.6099 72.0001 45.1307 71.6537 47.5571 71.0649L47.9979 70.6249Z" fill="currentColor"/>
<path d="M47.9945 42.6665C46.6305 42.6721 45.2681 43.1873 44.2265 44.2289C42.1433 46.3121 42.1433 49.6873 44.2265 51.7713L51.7681 59.3153C54.2425 61.7873 55.2113 65.1665 54.7481 68.3809C64.2449 63.4353 70.9377 53.8753 71.8649 42.6665H47.9945Z" fill="currentColor"/>
<path d="M64 8C60.2832 8 57.1872 10.5504 56.2888 13.984C34.5288 17.3304 17.3304 34.5288 13.984 56.2888C10.5472 57.1872 8 60.2832 8 64C8 68.4168 11.5832 72 16 72C20.4168 72 24 68.4168 24 64C24 60.7632 22.068 57.992 19.3024 56.732C22.4064 37.5288 37.5312 22.404 56.732 19.3024C57.992 22.068 60.7656 24 64 24C68.4168 24 72 20.4168 72 16C72 11.5832 68.4168 8 64 8ZM16 66.6664C14.5256 66.6664 13.3336 65.4712 13.3336 64C13.3336 62.5288 14.5256 61.3336 16 61.3336C17.4744 61.3336 18.6664 62.5288 18.6664 64C18.6664 65.4712 17.4744 66.6664 16 66.6664ZM64 18.6664C62.5288 18.6664 61.3336 17.4744 61.3336 16C61.3336 14.5264 62.5288 13.3328 64 13.3328C65.4712 13.3328 66.6664 14.5264 66.6664 16C66.6664 17.4744 65.4712 18.6664 64 18.6664Z" fill="currentColor"/>
</svg>
