<svg width="80" height="80" viewBox="0 0 80 80" fill="none" xmlns="http://www.w3.org/2000/svg">
<path d="M71.2224 41.4264L63.6808 33.88C62.644 32.8432 60.9464 32.8432 59.9104 33.8848L35.9104 57.8792L33.104 71.9992L47.2232 69.192L71.2224 45.1976C72.2592 44.1608 72.2592 42.4632 71.2224 41.4264Z" fill="currentColor"/>
<path d="M55.9994 26.6666L37.333 8.00098V26.6666H55.9994Z" fill="currentColor"/>
<path d="M30.9944 55.2522L54.2512 32.0002H37.3328C34.3872 32.0002 32 29.6098 32 26.6666V8.00098H13.3336C10.388 8.00098 8 10.3858 8 13.3282V66.6658C8 69.6114 10.388 71.9994 13.3336 71.9994H27.664L30.9944 55.2522Z" fill="currentColor"/>
</svg>
