<svg width="80" height="80" viewBox="0 0 80 80" fill="none" xmlns="http://www.w3.org/2000/svg">
<path fill-rule="evenodd" clip-rule="evenodd" d="M54.528 26.864C53.2831 25.7725 51.4926 25.7975 50.4652 26.1146C51.1383 25.2882 52.7055 24.6106 53.1676 24.5284C53.5193 24.6602 54.528 25.6969 54.528 26.864ZM58.5029 22.3443C57.6843 17.9647 47.5059 20.8665 42.3801 19.0063C42.2818 20.283 43.9581 22.3287 45.5615 23.0859C42.8207 25.4644 40.3601 30.2568 39.8636 36.1117C39.3687 30.2568 36.9079 25.4644 34.1673 23.0859C35.7705 22.3287 37.4482 20.283 37.3486 19.0063C32.2228 20.8665 22.0443 17.9647 21.2242 22.3443C21.0517 23.2711 21.4976 24.6838 21.9795 25.0898C22.0655 24.7961 22.5156 23.8352 23.9344 23.6198C31.1054 22.5363 37.0924 33.5883 31.6882 38.0569C31.6059 38.1247 31.652 38.2502 31.7637 38.2502H47.9661C48.0763 38.2502 48.1229 38.1247 48.0419 38.0569C42.6361 33.5883 48.6232 22.5363 55.7941 23.6198C57.2142 23.8352 57.6627 24.7961 57.7491 25.0897C58.2309 24.6838 58.6768 23.2714 58.5029 22.3443ZM60.247 12.2923C60.1183 11.8786 64.3229 11.8682 64.3229 14.4998C64.3229 16.2636 61.8079 17.099 61.8079 18.9293C61.8079 19.7818 62.725 20.4071 63.0064 20.4071C62.3586 17.4685 65.0372 19.0063 65.7604 19.5559C64.323 15.6042 67.5589 15.6291 67.2403 13.8171C67.0186 12.5508 64.2063 12.9334 63.1883 12.2923C61.382 11.1553 59.2453 6.73106 57.8369 11.1553C60.4622 13.5927 58.9347 17.18 55.602 17.18C55.602 17.18 55.5833 17.706 55.6138 17.7478C59.5889 17.5532 60.9744 14.6318 60.247 12.2923ZM13.8714 19.5559C14.5949 19.0063 17.2731 17.4685 16.6269 20.4071C16.9068 20.4071 17.8239 19.7818 17.8239 18.9293C17.8239 17.099 15.3088 16.2636 15.3088 14.4998C15.3088 11.8681 19.5135 11.8786 19.3847 12.2923C18.6587 14.6317 20.0445 17.5533 24.0193 17.7478C24.0485 17.706 24.0299 17.18 24.0299 17.18C20.6987 17.18 19.171 13.5925 21.795 11.1553C20.3867 6.73106 18.2499 11.1553 16.4437 12.2923C15.4258 12.9335 12.6133 12.5508 12.3916 13.8171C12.0743 15.6291 15.3088 15.6043 13.8714 19.5559ZM25.1581 26.8639C26.4042 25.7724 28.1947 25.7974 29.2209 26.1144C28.5505 25.288 26.9805 24.6105 26.5199 24.5283C26.1681 24.6601 25.1581 25.6968 25.1581 26.8639ZM41.7549 2.36419L39.8158 0L37.8769 2.36419L39.816 4.85236L41.7549 2.36419ZM52.8239 9.513L51.4449 7.83276L50.0673 9.513L51.4449 11.1552L52.8239 9.513ZM64.0084 58.0785L62.2605 56.2287L60.5125 58.0785L62.2605 59.7012L64.0084 58.0785ZM29.5658 9.51275L28.1866 7.83251L26.809 9.51275L28.1866 11.1551L29.5658 9.51275ZM25.6159 17.7476H30.7589C35.0829 17.7476 37.0287 15.0936 37.6166 12.792H42.0164C42.6044 15.0937 44.5486 17.7477 48.8742 17.7477H54.0172C54.0172 17.7477 54.9168 16.5271 55.1423 15.9227C55.9548 13.7478 54.9168 12.7334 53.4025 12.7334L51.4448 14.5076L49.4871 12.7334C47.9728 12.7334 46.935 13.7478 47.7473 15.9227C47.8508 16.2009 48.099 16.6093 48.3338 16.9683C46.5089 16.7176 44.1796 15.4684 43.6685 12.792C43.6685 12.792 45.017 10.6499 45.3555 9.78306C46.5714 6.66582 45.0185 5.39149 42.7476 5.39149L39.8157 8.83804L36.8841 5.39149C34.6132 5.39149 33.0603 6.6657 34.2774 9.78306C34.6147 10.65 35.9644 12.7922 35.9644 12.7922C35.4521 15.4686 33.1228 16.7177 31.2979 16.9684C31.5341 16.6094 31.781 16.2009 31.8845 15.9229C32.6953 13.7479 31.6603 12.7335 30.1444 12.7335L28.1869 14.5077L26.2294 12.7335C24.7138 12.7335 23.6784 13.7479 24.4895 15.9229C24.715 16.5272 25.6159 17.7476 25.6159 17.7476ZM78.7882 33.6899C77.7952 34.1926 71.9715 36.9209 64.5113 35.9117C64.5885 35.5559 64.654 35.1975 64.7077 34.8373C69.6728 34.2433 73.7089 33.4013 76.281 31.9706C79.2129 30.3387 80.495 26.4434 79.0151 23.5452C78.9768 23.4721 78.8706 23.4591 78.8175 23.5202C78.0067 24.4538 72.9073 30.0007 64.8737 31.7251C64.8532 31.309 64.8151 30.894 64.7596 30.4811C68.6615 28.2682 72.4707 25.7185 74.2851 23.3871C77.0272 19.8623 76.7749 15.3664 74.1657 13.0739C74.1386 13.0507 74.1028 13.0403 74.0675 13.0453C74.0321 13.0503 74.0007 13.0703 73.9811 13.1001C73.1557 14.4617 65.4287 26.9509 56.9451 32.3424C56.8415 32.4087 56.7372 32.4735 56.632 32.537C56.389 32.6846 56.3625 33.0004 56.5696 33.1884C57.5476 34.0748 58.1555 35.3085 58.1555 36.678C58.1555 39.059 56.32 41.0394 53.8938 41.4689C52.6608 41.7077 50.8809 41.6385 49.1714 41.0734C49.0945 41.0485 49.0149 41.0994 49.0149 41.1765V48.7182C49.0149 48.8395 49.1995 48.8695 49.2431 48.7532C50.2822 46.0002 53.3932 45.4151 54.7538 45.4151C55.2435 48.3577 56.118 50.7951 57.2542 52.107C59.104 54.2388 62.125 54.2089 63.435 52.735C63.4566 52.7106 63.4659 52.6776 63.4602 52.6455C63.4545 52.6135 63.4344 52.5857 63.4057 52.5703C62.636 52.128 58.2322 49.4244 57.3508 44.9936C57.6989 44.8735 58.0384 44.7377 58.3637 44.577C59.7851 46.9296 61.8542 49.0248 63.5198 49.825C66.3177 51.1672 68.8791 50.5143 70.0153 48.5497C70.0564 48.4805 70.006 48.3943 69.9223 48.3865C68.1917 48.2481 62.8802 46.7259 60.6185 43.0171C60.8775 42.7794 61.1309 42.5314 61.3672 42.2677C63.7335 44.0692 67.0796 45.6619 69.4753 45.9869C72.2782 46.3681 75.4543 45.4739 75.5314 42.2142C75.5326 42.1488 75.4742 42.0953 75.4054 42.0994C74.4084 42.1593 67.8109 42.4466 63.1098 39.7481C63.2731 39.4376 63.4254 39.1215 63.5663 38.8003C63.5663 38.8003 70.6698 40.4793 74.0355 39.923C77.3801 39.3709 79.3391 36.8775 78.9608 33.7758C78.9502 33.6985 78.8599 33.6533 78.7882 33.6899ZM16.0652 38.8007C16.2066 39.1219 16.3593 39.438 16.523 39.7485C11.8234 42.4456 5.22848 42.1609 4.22782 42.0998C4.15746 42.0957 4.09909 42.1518 4.10033 42.2158C4.17892 45.4743 7.35354 46.3684 10.1564 45.9873C12.5509 45.6622 15.8982 44.0696 18.2645 42.2681C18.5021 42.5318 18.7543 42.7798 19.0129 43.0174C16.7502 46.7259 11.44 48.2482 9.70924 48.3867C9.62566 48.3944 9.57652 48.4806 9.61643 48.5498C10.7526 50.5145 13.3141 51.1672 16.1132 49.8252C17.7776 49.025 19.8467 46.9297 21.2682 44.5774C21.5945 44.7378 21.9343 44.8736 22.2807 44.9938C21.3994 49.4245 16.9958 52.1281 16.2259 52.5704C16.1975 52.5861 16.1776 52.6138 16.172 52.6458C16.1663 52.6778 16.1754 52.7106 16.1967 52.7351C17.5067 54.209 20.5289 54.2389 22.3788 52.1071C23.5151 50.7951 24.3883 48.3578 24.878 45.4154C26.2397 45.4154 29.3493 46.0004 30.3885 48.7534C30.4337 48.8697 30.6181 48.8395 30.6181 48.7182V41.1765C30.6181 41.0995 30.5372 41.0486 30.4603 41.0734C28.7508 41.6385 26.9711 41.7079 25.7394 41.4689C23.3119 41.0395 21.4764 39.0592 21.4764 36.678C21.4764 35.3084 22.0855 34.0734 23.0623 33.187C23.2707 33.0003 23.2428 32.6843 23.0012 32.5369C22.8951 32.4734 22.7898 32.4085 22.6854 32.3423C14.2071 26.9536 6.48398 14.4734 5.65184 13.1025C5.61317 13.0385 5.52037 13.0255 5.46324 13.0751C2.85793 15.3688 2.60446 19.8634 5.34648 23.3869C7.16081 25.7183 10.9697 28.2679 14.8706 30.4808C14.8156 30.8937 14.7779 31.3087 14.7578 31.7247C6.73084 30.0016 1.63561 24.4636 0.816693 23.5239C0.762307 23.4599 0.653284 23.473 0.616237 23.5461C-0.860678 26.4455 0.421269 30.3384 3.35052 31.9702C5.92265 33.401 9.95872 34.243 14.9238 34.837C14.9775 35.1972 15.043 35.5555 15.1202 35.9114C7.66788 36.9193 1.84667 34.1974 0.846007 33.6907C0.771662 33.6529 0.681351 33.7 0.67212 33.7783C0.295407 36.8801 2.25282 39.3709 5.59746 39.923C8.96193 40.4793 16.0652 38.8007 16.0652 38.8007ZM62.2603 62.0836L59.6722 60.0471C58.6396 60.662 57.8805 61.6387 57.5858 62.7835C56.0291 63.0015 51.7845 62.059 52.1971 61.4338C56.8491 54.8907 53.2908 50.9952 49.0146 51.2119V55.6062C49.0146 57.0174 47.7829 58.1609 46.2659 58.1609H43.313C41.1947 58.1609 39.8157 60.2902 39.8157 60.2902C39.8157 60.2902 38.437 58.1609 36.3186 58.1609H33.3656C31.8475 58.1609 30.6184 57.0174 30.6184 55.6062V51.212C26.3421 50.9955 22.7811 54.891 27.4345 61.4339C27.8432 62.0526 23.4806 63.0435 21.4341 62.7928C20.8952 62.234 20.1174 61.8816 19.2467 61.8816C18.8766 61.8817 18.5094 61.9476 18.1623 62.0762C18.1623 62.0762 10.1209 54.4627 9.97356 54.3883L10.0399 54.2342C10.4977 53.3779 9.79706 52.4444 9.35386 52.5098C9.86866 51.8923 9.89273 49.1886 7.03645 48.5633C7.12002 49.1064 7.16244 50.2148 7.16244 50.2148C7.16244 50.2148 4.95804 49.0228 3.8511 50.0514C2.87839 51.203 4.22819 53.2917 4.22819 53.2917C4.22819 53.2917 3.10005 53.3191 2.54396 53.2721C3.36163 56.0371 6.10365 55.8412 6.69691 55.2956C6.65824 55.7356 7.64992 56.3621 8.48991 55.8594L8.85889 55.6807C8.92401 55.768 16.7559 63.1675 16.7559 63.1675C16.3961 63.7014 16.225 64.3568 16.343 65.0552C16.5289 66.1467 17.4382 67.0513 18.5995 67.2862C19.4196 67.4508 20.1907 67.2914 20.8092 66.9298L22.8823 68.8542C23.067 69.0213 23.3164 69.1256 23.595 69.1061C24.102 69.0721 24.4816 68.6608 24.4432 68.1897C24.4272 67.9769 24.3185 67.7943 24.1684 67.6558C24.1352 67.6191 22.0568 65.6896 22.0568 65.6896C23.7714 64.4872 26.9661 63.6402 29.6178 63.6402C30.0837 63.6402 30.3026 63.246 30.1421 62.8593C28.9408 59.9703 31.5237 57.8778 34.1953 59.5814C35.3608 60.3242 36.5447 61.7877 37.4366 64.2288C33.0527 65.2904 27.5488 68.2142 26.4353 71.4063C26.0066 72.6387 27.4227 74.3187 29.1428 74.657C29.1732 74.6638 29.2051 74.658 29.2313 74.6411C29.2575 74.6241 29.2758 74.5974 29.2821 74.5668C30.1807 69.8018 35.305 66.2508 37.9714 65.6477C38.1055 66.0067 38.0616 65.8906 38.1957 66.2482C35.2918 67.6216 32.4754 70.5184 31.6711 73.9621C31.3021 75.5392 33.0607 76.9608 34.5127 77.35C34.5856 77.3695 34.6574 77.3186 34.6614 77.2481C34.9374 72.8931 36.8605 69.1947 38.5832 67.512C38.6304 67.8409 38.6658 68.1713 38.6894 68.5028C38.6894 68.5028 36.9256 73.4179 36.9256 77.004C36.9256 78.6723 39.4048 79.8368 39.7712 80C40.229 79.8368 42.7069 78.6723 42.7069 77.004C42.7069 73.4177 40.9431 68.5028 40.9431 68.5028C40.9672 68.1713 41.003 67.8408 41.0506 67.512C42.772 69.1947 44.6964 72.8917 44.9712 77.2466C44.9752 77.3172 45.0482 77.3695 45.1196 77.3499C46.5731 76.961 48.3304 75.5393 47.9627 73.9624C47.1569 70.5186 44.342 67.6219 41.438 66.2485C41.5707 65.8907 41.5269 66.0069 41.661 65.6479C44.3288 66.251 49.4518 69.8017 50.3503 74.5667C50.3568 74.5972 50.3752 74.6238 50.4013 74.6408C50.4275 74.6577 50.4593 74.6635 50.4898 74.6569C52.2085 74.3189 53.6272 72.6386 53.1959 71.4064C52.0851 68.2144 46.5797 65.2905 42.196 64.229C43.0891 61.7878 44.2729 60.3244 45.4382 59.5815C48.1086 57.878 50.6914 59.9707 49.4903 62.8597C49.3296 63.246 49.5473 63.6402 50.0145 63.6402C53.0139 63.6402 56.7088 64.7238 58.1712 66.1768C59.1058 67.5788 60.8324 68.4757 62.7809 68.2836C64.9946 68.067 66.7997 66.4038 67.0492 64.3478C67.2669 62.5462 66.3352 60.9287 64.85 60.0476L62.2603 62.0836ZM43.1842 48.9597C44.1066 48.6179 45.552 48.8946 45.5028 50.2261C45.491 50.5276 45.9145 50.5276 45.9449 50.2195C46.221 48.2261 44.8738 47.6516 43.4643 47.8853C43.2892 47.1999 43.1459 46.6008 42.9826 46.0068C42.8526 45.5265 42.8047 44.6243 43.3609 44.6243C43.6609 44.6243 43.5402 45.4638 43.5124 45.8253C43.487 46.1425 43.6012 46.3345 43.8588 46.3436C44.0194 46.35 44.2199 46.1452 44.3393 46.0093C45.1463 45.0968 45.3334 43.6844 44.3884 43.003C43.5976 42.4311 41.6172 42.8567 41.0728 43.6713C40.9908 43.3644 40.5978 42.858 40.4092 42.6372C40.2262 42.422 40.1785 42.2744 40.4319 42.0852C40.5514 41.9938 40.9124 41.6349 40.9124 41.264C40.9124 41.0448 40.7425 40.64 40.2024 40.64C39.7763 40.64 39.3025 40.9351 39.3025 41.593C39.3025 41.7393 39.3383 41.8961 39.4325 42.0645C39.1631 42.02 38.4319 42.0383 38.0563 42.131L43.2497 56.3827C44.7362 55.649 45.8258 54.4872 45.8258 53.2405C45.8258 52.1777 44.2608 52.5303 43.5004 53.3593C43.2562 52.0121 43.0385 50.7679 42.801 49.5277C42.7361 49.1856 42.9095 49.0629 43.1842 48.9597ZM35.8408 39.2787L36.9317 42.3099C35.9974 42.5319 34.4951 43.2132 34.4951 44.1152C34.4951 45.3165 36.6199 46.0983 37.849 46.0043C37.7878 46.2784 37.8583 46.5226 38.0494 46.7457C37.6035 46.7457 36.7621 46.9533 36.4859 47.2509C35.8343 46.6439 34.8149 46.4233 34.3304 46.7927C33.8434 47.1648 33.829 47.7954 34.3372 48.5082C34.6914 49.0016 34.8243 49.4886 34.4261 50.0603C35.9073 50.0603 35.3616 48.1348 35.9417 48.1348C35.8661 48.5082 35.9125 48.9403 36.0811 49.4194C36.1927 49.7378 36.1927 49.9637 36.0016 50.2705C35.5238 51.0343 34.7806 52.7887 34.8814 54.3749C34.3957 54.3722 34.1488 54.2533 34.3201 53.5903C34.3837 53.3433 34.2311 53.1672 34.0294 53.4714C33.8064 53.807 33.6989 54.38 33.6989 54.6253C33.6989 56.0379 35.3816 56.3225 36.024 56.0236C37.8823 57.8217 41.5321 57.3421 42.7545 56.739L36.3281 39.1061C36.1967 38.7733 35.7254 38.9327 35.8408 39.2787ZM35.6177 53.8031C35.485 53.0771 36.495 51.7796 37.7798 50.5277C37.5064 51.3435 37.6763 52.7496 38.2124 53.2339C37.2806 53.2339 36.1737 53.4088 35.6177 53.8031Z" fill="currentColor"/>
</svg>
