<svg width="80" height="80" viewBox="0 0 80 80" fill="none" xmlns="http://www.w3.org/2000/svg">
<path d="M18.6668 24C18.6668 18.1152 23.4532 13.3336 29.334 13.3336H45.334V8H18.6668C15.7212 8 13.334 10.3848 13.334 13.3336V56C13.334 58.9432 15.7212 61.3336 18.6668 61.3336V24Z" fill="currentColor"/>
<path d="M50.666 18.6665L66.666 34.6665H50.666V18.6665Z" fill="currentColor"/>
<path d="M50.6664 40.0001C47.7208 40.0001 45.3336 37.6097 45.3336 34.6665V18.6665H29.3336C26.388 18.6665 24 21.0521 24 24.0001V66.6665C24 69.6097 26.388 72.0001 29.3336 72.0001H61.3336C64.276 72.0001 66.6664 69.6153 66.6664 66.6665V40.0001H50.6664ZM32 26.6665H40V32.0001H32V26.6665ZM32 37.3337H40V42.6665H32V37.3337ZM58.6664 64.0001H32V58.6665H58.6664V64.0001ZM58.6664 53.3337H32V48.0001H58.6664V53.3337Z" fill="currentColor"/>
</svg>
