<svg width="282" height="50" viewBox="0 0 282 50" fill="none" xmlns="http://www.w3.org/2000/svg">
<path fill-rule="evenodd" clip-rule="evenodd" d="M53.2672 38.6611L57.5232 13.3255H73.4855L80.0095 21.7124L76.6565 38.6611H72.7907H71.4004C70.3114 36.2096 67.8554 34.5 65 34.5C62.1446 34.5 59.6886 36.2096 58.5996 38.6611H57.1885H53.2672ZM72.7907 44.2383H71.4442C70.3783 46.7435 67.8943 48.5 65 48.5C62.1057 48.5 59.6217 46.7435 58.5558 44.2383H57.1885H52.117H49.3921H36.3942C32.8049 44.2383 29.8952 42.2936 29.8952 38.6611H38.2812H46.6673L47.5874 32.3993H24.0462C20.4569 32.3993 17.5472 30.4546 17.5472 26.8221H43.543C43.543 29.6062 45.2523 30.9863 47.6667 31.9462L49.773 19.9027H13.6478C10.0586 19.9027 7.14886 17.958 7.14886 14.3255H43.543C43.543 17.8671 46.309 19.7549 49.7739 19.8972L52.016 7.07718H6.49896C2.9097 7.07718 0 5.13248 0 1.5H59.7662L58.6734 7.74832H76.6405L86 20.0661L80.9182 44.2383H72.7907ZM65 44.5C66.6569 44.5 68 43.1569 68 41.5C68 39.8431 66.6569 38.5 65 38.5C63.3431 38.5 62 39.8431 62 41.5C62 43.1569 63.3431 44.5 65 44.5Z" fill="white"/>
<g clip-path="url(#clip0_10_122)">
<path d="M123.127 8.5H100.156L96 27.5H118.856L119.779 23.2394H102.003L102.695 20.0152H118.163L119.087 15.8697H103.619L104.311 12.7606H122.088L123.127 8.5ZM145.059 8.5H159.142C160.758 8.5 162.143 9.07576 162.951 10.1121C163.875 11.1485 164.105 12.5303 163.759 14.0273L163.528 15.2939H158.449L158.565 14.9485C158.68 14.2576 158.565 13.797 158.218 13.3364C157.872 12.8758 157.295 12.6455 156.718 12.6455H145.636C144.944 12.6455 144.366 12.8758 143.789 13.3364C143.212 13.797 142.866 14.2576 142.75 14.9485L141.365 21.0515C141.25 21.6273 141.365 22.203 141.711 22.6636C142.058 23.1242 142.635 23.2394 143.212 23.3545H154.294C154.986 23.3545 155.563 23.1242 156.141 22.6636C156.718 22.203 157.064 21.7424 157.179 21.0515L157.295 20.7061H162.374L162.143 21.8576C161.797 23.3545 160.989 24.7364 159.488 25.7727C158.103 26.8091 156.602 27.3848 154.871 27.3848H140.788C139.172 27.3848 137.902 26.8091 136.979 25.7727C136.055 24.7364 135.824 23.3545 136.171 21.8576L137.902 13.9121C138.248 12.4152 139.056 11.0333 140.557 9.99697C141.827 9.07576 143.327 8.5 145.059 8.5ZM184.306 8.5H179.227L163.297 27.5H168.723L172.186 23.3545H184.768L186.384 27.5H191.809L184.306 8.5ZM175.649 19.3242L180.843 13.2212L183.267 19.3242H175.649ZM198.504 8.5H216.743C218.59 8.5 219.975 9.07576 220.898 10.2273C221.937 11.3788 222.284 12.8758 221.822 14.4879C221.476 15.9848 220.668 17.3667 219.282 18.5182C217.897 19.6697 216.396 20.2455 214.78 20.4758L219.282 27.5H213.395L209.355 20.5909H200.928L199.428 27.5H194.349L198.504 8.5ZM202.66 12.7606L201.852 16.4455H214.55C215.127 16.4455 215.704 16.2152 216.05 15.8697C216.512 15.5242 216.743 15.0636 216.858 14.4879C216.974 13.9121 216.858 13.4515 216.627 13.1061C216.396 12.7606 215.935 12.5303 215.358 12.6455H202.66V12.7606ZM251.604 8.5H231.864C230.248 8.5 228.632 9.07576 227.247 10.1121C225.862 11.1485 224.939 12.5303 224.592 14.0273L222.861 21.9727C222.514 23.4697 222.861 24.8515 223.669 25.8879C224.592 26.9242 225.862 27.5 227.478 27.5H247.91L250.334 16.3303H239.137L238.213 20.3606H244.562L243.87 23.3545H230.018C229.325 23.3545 228.863 23.1242 228.517 22.6636C228.171 22.203 228.055 21.7424 228.171 21.0515L229.556 14.9485C229.671 14.2576 230.018 13.797 230.595 13.3364C231.172 12.8758 231.749 12.6455 232.442 12.6455H250.68L251.604 8.5ZM275.152 8.5H260.607C258.991 8.5 257.375 9.07576 255.99 10.1121C254.605 11.1485 253.681 12.5303 253.335 14.0273L251.604 21.9727C251.257 23.4697 251.604 24.8515 252.412 25.8879C253.335 26.9242 254.605 27.5 256.221 27.5H270.765C272.381 27.5 273.997 26.9242 275.383 25.8879C276.768 24.8515 277.691 23.4697 278.038 21.9727L279.769 14.0273C280.115 12.5303 279.885 11.1485 278.961 10.1121C278.153 9.07576 276.883 8.5 275.152 8.5ZM259.453 13.4515C260.03 12.9909 260.607 12.7606 261.3 12.7606H272.843C273.536 12.7606 273.997 12.9909 274.344 13.4515C274.69 13.9121 274.806 14.3727 274.69 15.0636L273.305 21.1667C273.189 21.7424 272.843 22.3182 272.266 22.7788C271.689 23.2394 271.112 23.3545 270.419 23.4697H258.876C258.183 23.4697 257.721 23.2394 257.375 22.7788C257.029 22.3182 256.913 21.8576 257.029 21.1667L258.414 15.0636C258.529 14.3727 258.876 13.797 259.453 13.4515Z" fill="white"/>
</g>
<path d="M93.494 43.5L94.824 36.85H95.774L94.444 43.5H93.494ZM96.4349 43.5L97.7649 36.85H98.5439L101.736 42.341L101.451 42.303L102.534 36.85H103.484L102.154 43.5H101.375L98.1829 38.009L98.4679 38.047L97.3849 43.5H96.4349ZM105.465 43.5L106.624 37.6765H104.353L104.515 36.85H110.015L109.844 37.6765H107.574L106.405 43.5H105.465ZM111.345 39.719H114.765L114.603 40.5265H111.183L111.345 39.719ZM110.832 42.6735H114.717L114.556 43.5H109.72L111.05 36.85H115.743L115.582 37.6765H111.829L110.832 42.6735ZM116.084 43.5L117.414 36.85H119.894C120.673 36.85 121.274 37.021 121.699 37.363C122.129 37.705 122.345 38.1832 122.345 38.7975C122.345 39.3548 122.218 39.833 121.965 40.232C121.718 40.631 121.36 40.9382 120.891 41.1535C120.423 41.3625 119.865 41.467 119.219 41.467H117.044L117.528 41.03L117.044 43.5H116.084ZM120.559 43.5L119.191 41.087H120.207L121.566 43.5H120.559ZM117.509 41.1345L117.186 40.6595H119.248C119.925 40.6595 120.451 40.5107 120.825 40.213C121.205 39.909 121.395 39.4657 121.395 38.883C121.395 38.484 121.259 38.1832 120.986 37.9805C120.714 37.7778 120.321 37.6765 119.808 37.6765H117.813L118.298 37.192L117.509 41.1345ZM122.987 43.5L124.317 36.85H125.096L128.288 42.341L128.003 42.303L129.086 36.85H130.036L128.706 43.5H127.927L124.735 38.009L125.02 38.047L123.937 43.5H122.987ZM129.689 43.5L134.04 36.85H134.981L136.662 43.5H135.722L134.24 37.363H134.62L130.715 43.5H129.689ZM131.304 41.8375L131.722 41.0775H135.456L135.589 41.8375H131.304ZM138.641 43.5L139.8 37.6765H137.529L137.691 36.85H143.191L143.02 37.6765H140.75L139.581 43.5H138.641ZM142.896 43.5L144.226 36.85H145.176L143.846 43.5H142.896ZM149.038 43.576C148.38 43.576 147.816 43.4588 147.347 43.2245C146.879 42.9902 146.521 42.664 146.274 42.246C146.033 41.8217 145.913 41.3308 145.913 40.7735C145.913 40.2225 146.008 39.7063 146.198 39.225C146.388 38.7373 146.66 38.3098 147.015 37.9425C147.369 37.5752 147.794 37.2902 148.288 37.0875C148.782 36.8785 149.336 36.774 149.95 36.774C150.615 36.774 151.182 36.8912 151.651 37.1255C152.119 37.3598 152.474 37.6892 152.715 38.1135C152.962 38.5315 153.085 39.0192 153.085 39.5765C153.085 40.1275 152.99 40.6468 152.8 41.1345C152.61 41.6158 152.338 42.0402 151.983 42.4075C151.629 42.7748 151.201 43.063 150.701 43.272C150.207 43.4747 149.653 43.576 149.038 43.576ZM149.124 42.7305C149.58 42.7305 149.995 42.6513 150.368 42.493C150.742 42.3283 151.059 42.1035 151.318 41.8185C151.578 41.5272 151.777 41.1947 151.917 40.821C152.056 40.4473 152.126 40.0515 152.126 39.6335C152.126 39.2345 152.04 38.8862 151.869 38.5885C151.698 38.2845 151.445 38.047 151.109 37.876C150.774 37.705 150.362 37.6195 149.874 37.6195C149.412 37.6195 148.994 37.7018 148.62 37.8665C148.253 38.0248 147.936 38.2497 147.67 38.541C147.411 38.826 147.211 39.1553 147.072 39.529C146.932 39.9027 146.863 40.2985 146.863 40.7165C146.863 41.1155 146.948 41.467 147.119 41.771C147.297 42.0687 147.55 42.303 147.879 42.474C148.215 42.645 148.63 42.7305 149.124 42.7305ZM153.815 43.5L155.145 36.85H155.924L159.116 42.341L158.831 42.303L159.914 36.85H160.864L159.534 43.5H158.755L155.563 38.009L155.848 38.047L154.765 43.5H153.815ZM160.518 43.5L164.869 36.85H165.809L167.491 43.5H166.55L165.068 37.363H165.448L161.544 43.5H160.518ZM162.133 41.8375L162.551 41.0775H166.284L166.417 41.8375H162.133ZM168.483 43.5L169.813 36.85H170.763L169.594 42.6735H173.204L173.043 43.5H168.483ZM176.675 43.5L178.005 36.85H178.955L177.786 42.6735H181.396L181.235 43.5H176.675ZM185.396 43.576C184.738 43.576 184.174 43.4588 183.705 43.2245C183.237 42.9902 182.879 42.664 182.632 42.246C182.391 41.8217 182.271 41.3308 182.271 40.7735C182.271 40.2225 182.366 39.7063 182.556 39.225C182.746 38.7373 183.018 38.3098 183.373 37.9425C183.727 37.5752 184.152 37.2902 184.646 37.0875C185.14 36.8785 185.694 36.774 186.308 36.774C186.973 36.774 187.54 36.8912 188.009 37.1255C188.477 37.3598 188.832 37.6892 189.073 38.1135C189.32 38.5315 189.443 39.0192 189.443 39.5765C189.443 40.1275 189.348 40.6468 189.158 41.1345C188.968 41.6158 188.696 42.0402 188.341 42.4075C187.987 42.7748 187.559 43.063 187.059 43.272C186.565 43.4747 186.011 43.576 185.396 43.576ZM185.482 42.7305C185.938 42.7305 186.353 42.6513 186.726 42.493C187.1 42.3283 187.417 42.1035 187.676 41.8185C187.936 41.5272 188.135 41.1947 188.275 40.821C188.414 40.4473 188.484 40.0515 188.484 39.6335C188.484 39.2345 188.398 38.8862 188.227 38.5885C188.056 38.2845 187.803 38.047 187.467 37.876C187.132 37.705 186.72 37.6195 186.232 37.6195C185.77 37.6195 185.352 37.7018 184.978 37.8665C184.611 38.0248 184.294 38.2497 184.028 38.541C183.769 38.826 183.569 39.1553 183.43 39.529C183.29 39.9027 183.221 40.2985 183.221 40.7165C183.221 41.1155 183.306 41.467 183.477 41.771C183.655 42.0687 183.908 42.303 184.237 42.474C184.573 42.645 184.988 42.7305 185.482 42.7305ZM193.422 43.576C192.764 43.576 192.197 43.4588 191.722 43.2245C191.253 42.9902 190.889 42.664 190.629 42.246C190.376 41.8217 190.249 41.3308 190.249 40.7735C190.249 40.2225 190.344 39.7063 190.534 39.225C190.724 38.7373 190.997 38.3098 191.351 37.9425C191.712 37.5752 192.143 37.2902 192.643 37.0875C193.15 36.8785 193.717 36.774 194.344 36.774C194.926 36.774 195.433 36.8627 195.864 37.04C196.301 37.2173 196.649 37.4707 196.909 37.8L196.225 38.3795C196.003 38.1198 195.731 37.9298 195.408 37.8095C195.091 37.6828 194.724 37.6195 194.306 37.6195C193.831 37.6195 193.403 37.7018 193.023 37.8665C192.643 38.0248 192.317 38.2465 192.045 38.5315C191.772 38.8102 191.563 39.1395 191.418 39.5195C191.272 39.8932 191.199 40.2922 191.199 40.7165C191.199 41.1155 191.285 41.467 191.456 41.771C191.633 42.0687 191.893 42.303 192.235 42.474C192.583 42.645 193.014 42.7305 193.527 42.7305C193.9 42.7305 194.246 42.6672 194.562 42.5405C194.885 42.4138 195.189 42.2302 195.474 41.9895L195.845 42.7495C195.522 43.0092 195.148 43.2118 194.724 43.3575C194.306 43.5032 193.872 43.576 193.422 43.576ZM194.971 42.607L195.455 40.137H196.367L195.845 42.7495L194.971 42.607ZM197.512 43.5L198.842 36.85H199.792L198.462 43.5H197.512ZM202.504 43.576C202.169 43.576 201.839 43.5412 201.516 43.4715C201.2 43.3955 200.908 43.2973 200.642 43.177C200.383 43.0567 200.174 42.9205 200.015 42.7685L200.433 42.0085C200.604 42.1605 200.804 42.2935 201.032 42.4075C201.266 42.5215 201.513 42.6102 201.773 42.6735C202.039 42.7368 202.311 42.7685 202.59 42.7685C202.945 42.7685 203.258 42.7242 203.53 42.6355C203.803 42.5468 204.012 42.4202 204.157 42.2555C204.309 42.0845 204.385 41.8787 204.385 41.638C204.385 41.4417 204.322 41.2802 204.195 41.1535C204.069 41.0268 203.904 40.9255 203.701 40.8495C203.505 40.7672 203.283 40.6943 203.036 40.631C202.796 40.5613 202.552 40.4853 202.305 40.403C202.064 40.3143 201.843 40.2067 201.64 40.08C201.444 39.9533 201.282 39.7918 201.155 39.5955C201.035 39.3928 200.975 39.1395 200.975 38.8355C200.975 38.4112 201.092 38.047 201.326 37.743C201.561 37.4327 201.884 37.1952 202.295 37.0305C202.713 36.8595 203.195 36.774 203.739 36.774C204.151 36.774 204.544 36.8215 204.917 36.9165C205.291 37.0115 205.611 37.1508 205.877 37.3345L205.497 38.1135C205.25 37.9362 204.971 37.8032 204.661 37.7145C204.351 37.6258 204.028 37.5815 203.692 37.5815C203.331 37.5815 203.017 37.629 202.751 37.724C202.485 37.819 202.28 37.9552 202.134 38.1325C201.988 38.3035 201.912 38.5062 201.906 38.7405C201.906 38.9432 201.966 39.1078 202.086 39.2345C202.207 39.3612 202.368 39.4657 202.571 39.548C202.774 39.6303 202.995 39.7095 203.236 39.7855C203.483 39.8552 203.727 39.9312 203.967 40.0135C204.208 40.0895 204.43 40.1908 204.632 40.3175C204.841 40.4378 205.006 40.593 205.126 40.783C205.253 40.973 205.316 41.2137 205.316 41.505C205.316 41.9293 205.196 42.2998 204.955 42.6165C204.721 42.9268 204.392 43.1643 203.967 43.329C203.549 43.4937 203.062 43.576 202.504 43.576ZM207.581 43.5L208.74 37.6765H206.469L206.631 36.85H212.131L211.96 37.6765H209.69L208.521 43.5H207.581ZM211.836 43.5L213.166 36.85H214.116L212.786 43.5H211.836ZM218.026 43.576C217.354 43.576 216.781 43.4588 216.306 43.2245C215.838 42.9902 215.477 42.664 215.223 42.246C214.976 41.8217 214.853 41.3308 214.853 40.7735C214.853 40.2225 214.948 39.7063 215.138 39.225C215.328 38.7373 215.6 38.3098 215.955 37.9425C216.316 37.5752 216.743 37.2902 217.237 37.0875C217.738 36.8785 218.301 36.774 218.928 36.774C219.479 36.774 219.967 36.8627 220.391 37.04C220.816 37.2173 221.142 37.4738 221.37 37.8095L220.686 38.3985C220.489 38.1452 220.239 37.952 219.935 37.819C219.631 37.686 219.273 37.6195 218.862 37.6195C218.387 37.6195 217.959 37.7018 217.579 37.8665C217.206 38.0248 216.886 38.2497 216.62 38.541C216.354 38.826 216.151 39.1553 216.012 39.529C215.872 39.9027 215.803 40.2985 215.803 40.7165C215.803 41.1155 215.888 41.467 216.059 41.771C216.237 42.0687 216.493 42.303 216.829 42.474C217.171 42.645 217.592 42.7305 218.092 42.7305C218.498 42.7305 218.868 42.664 219.204 42.531C219.546 42.398 219.847 42.2017 220.106 41.942L220.657 42.569C220.353 42.9047 219.973 43.158 219.517 43.329C219.061 43.4937 218.564 43.576 218.026 43.576ZM227.442 43.576C226.771 43.576 226.198 43.4588 225.723 43.2245C225.254 42.9902 224.893 42.664 224.64 42.246C224.393 41.8217 224.269 41.3308 224.269 40.7735C224.269 40.2225 224.364 39.7063 224.554 39.225C224.744 38.7373 225.017 38.3098 225.371 37.9425C225.732 37.5752 226.16 37.2902 226.654 37.0875C227.154 36.8785 227.718 36.774 228.345 36.774C228.896 36.774 229.383 36.8627 229.808 37.04C230.232 37.2173 230.558 37.4738 230.786 37.8095L230.102 38.3985C229.906 38.1452 229.656 37.952 229.352 37.819C229.048 37.686 228.69 37.6195 228.278 37.6195C227.803 37.6195 227.376 37.7018 226.996 37.8665C226.622 38.0248 226.302 38.2497 226.036 38.541C225.77 38.826 225.568 39.1553 225.428 39.529C225.289 39.9027 225.219 40.2985 225.219 40.7165C225.219 41.1155 225.305 41.467 225.476 41.771C225.653 42.0687 225.91 42.303 226.245 42.474C226.587 42.645 227.008 42.7305 227.509 42.7305C227.914 42.7305 228.285 42.664 228.62 42.531C228.962 42.398 229.263 42.2017 229.523 41.942L230.074 42.569C229.77 42.9047 229.39 43.158 228.934 43.329C228.478 43.4937 227.981 43.576 227.442 43.576ZM234.121 43.576C233.462 43.576 232.898 43.4588 232.43 43.2245C231.961 42.9902 231.603 42.664 231.356 42.246C231.116 41.8217 230.995 41.3308 230.995 40.7735C230.995 40.2225 231.09 39.7063 231.28 39.225C231.47 38.7373 231.743 38.3098 232.097 37.9425C232.452 37.5752 232.876 37.2902 233.37 37.0875C233.864 36.8785 234.418 36.774 235.033 36.774C235.698 36.774 236.265 36.8912 236.733 37.1255C237.202 37.3598 237.557 37.6892 237.797 38.1135C238.044 38.5315 238.168 39.0192 238.168 39.5765C238.168 40.1275 238.073 40.6468 237.883 41.1345C237.693 41.6158 237.42 42.0402 237.066 42.4075C236.711 42.7748 236.284 43.063 235.783 43.272C235.289 43.4747 234.735 43.576 234.121 43.576ZM234.206 42.7305C234.662 42.7305 235.077 42.6513 235.451 42.493C235.824 42.3283 236.141 42.1035 236.401 41.8185C236.66 41.5272 236.86 41.1947 236.999 40.821C237.139 40.4473 237.208 40.0515 237.208 39.6335C237.208 39.2345 237.123 38.8862 236.952 38.5885C236.781 38.2845 236.527 38.047 236.192 37.876C235.856 37.705 235.444 37.6195 234.957 37.6195C234.494 37.6195 234.076 37.7018 233.703 37.8665C233.335 38.0248 233.019 38.2497 232.753 38.541C232.493 38.826 232.294 39.1553 232.154 39.529C232.015 39.9027 231.945 40.2985 231.945 40.7165C231.945 41.1155 232.031 41.467 232.202 41.771C232.379 42.0687 232.632 42.303 232.962 42.474C233.297 42.645 233.712 42.7305 234.206 42.7305ZM238.898 43.5L240.228 36.85H240.997L242.992 41.885L242.584 41.8755L246.488 36.85H247.305L245.975 43.5H245.063L246.118 38.256L246.355 38.275L242.888 42.6925H242.451L240.655 38.256L240.855 38.2845L239.81 43.5H238.898ZM247.971 43.5L249.301 36.85H251.771C252.55 36.85 253.152 37.021 253.576 37.363C254 37.705 254.213 38.1832 254.213 38.7975C254.213 39.3612 254.086 39.8457 253.833 40.251C253.586 40.65 253.228 40.9572 252.759 41.1725C252.29 41.3815 251.736 41.486 251.097 41.486H248.912L249.415 41.03L248.921 43.5H247.971ZM249.396 41.1345L249.064 40.6595H251.116C251.793 40.6595 252.319 40.5107 252.693 40.213C253.073 39.909 253.263 39.4657 253.263 38.883C253.263 38.484 253.126 38.1832 252.854 37.9805C252.582 37.7778 252.192 37.6765 251.686 37.6765H249.681L250.185 37.192L249.396 41.1345ZM253.393 43.5L257.744 36.85H258.685L260.366 43.5H259.426L257.944 37.363H258.324L254.419 43.5H253.393ZM255.008 41.8375L255.426 41.0775H259.16L259.293 41.8375H255.008ZM261.358 43.5L262.688 36.85H263.467L266.659 42.341L266.374 42.303L267.457 36.85H268.407L267.077 43.5H266.298L263.106 38.009L263.391 38.047L262.308 43.5H261.358ZM270.664 43.5L271.177 40.935L271.291 41.562L269.372 36.85H270.303L271.918 40.802L271.386 40.8115L274.578 36.85H275.585L271.794 41.5715L272.127 40.935L271.614 43.5H270.664Z" fill="white"/>
<defs>
<clipPath id="clip0_10_122">
<rect width="184" height="19" fill="white" transform="translate(96 8.5)"/>
</clipPath>
</defs>
</svg>
