<svg width="61" height="36" viewBox="0 0 61 36" fill="none" xmlns="http://www.w3.org/2000/svg">
<path fill-rule="evenodd" clip-rule="evenodd" d="M37.0608 25.8203L39.5025 11.2846H48.6606L52.4035 16.0964L50.4798 25.8203H48.2619H47.4643C46.8395 24.4138 45.4304 23.433 43.7922 23.433C42.154 23.433 40.7449 24.4138 40.1201 25.8203H39.3105H37.0608ZM48.2619 29.02H47.4894C46.8779 30.4573 45.4527 31.4651 43.7922 31.4651C42.1317 31.4651 40.7065 30.4573 40.095 29.02H39.3105H36.4008H34.8375H27.3803C25.321 29.02 23.6517 27.9043 23.6517 25.8203H28.4629H33.2742L33.8021 22.2277H20.2959C18.2366 22.2277 16.5673 21.112 16.5673 19.028H31.4818C31.4818 20.6253 32.4624 21.417 33.8476 21.9678L35.056 15.0581H14.3301C12.2709 15.0581 10.6015 13.9424 10.6015 11.8583H31.4818C31.4818 13.8902 33.0687 14.9733 35.0566 15.0549L36.3429 7.69977H10.2286C8.16937 7.69977 6.5 6.58405 6.5 4.5H40.7894L40.1625 8.08482H50.4706L55.8404 15.1519L52.9248 29.02H48.2619ZM43.7922 29.1701C44.7428 29.1701 45.5134 28.3995 45.5134 27.449C45.5134 26.4984 44.7428 25.7278 43.7922 25.7278C42.8417 25.7278 42.0711 26.4984 42.0711 27.449C42.0711 28.3995 42.8417 29.1701 43.7922 29.1701Z" fill="white"/>
</svg>
