<svg width="260" height="36" viewBox="0 0 260 36" fill="none" xmlns="http://www.w3.org/2000/svg">
<path fill-rule="evenodd" clip-rule="evenodd" d="M36.5608 25.8203L39.0025 11.2846H48.1606L51.9035 16.0964L49.9798 25.8203H47.7619H46.9643C46.3395 24.4138 44.9304 23.433 43.2922 23.433C41.654 23.433 40.2449 24.4138 39.6201 25.8203H38.8105H36.5608ZM47.7619 29.02H46.9894C46.3779 30.4573 44.9527 31.4651 43.2922 31.4651C41.6317 31.4651 40.2065 30.4573 39.595 29.02H38.8105H35.9008H34.3375H26.8803C24.821 29.02 23.1517 27.9043 23.1517 25.8203H27.9629H32.7742L33.3021 22.2277H19.7959C17.7366 22.2277 16.0673 21.112 16.0673 19.028H30.9818C30.9818 20.6253 31.9624 21.417 33.3476 21.9678L34.556 15.0581H13.8301C11.7709 15.0581 10.1015 13.9424 10.1015 11.8583H30.9818C30.9818 13.8902 32.5687 14.9733 34.5566 15.0549L35.8429 7.69977H9.72862C7.66937 7.69977 6 6.58405 6 4.5H40.2894L39.6625 8.08482H49.9706L55.3404 15.1519L52.4248 29.02H47.7619ZM43.2922 29.1701C44.2428 29.1701 45.0134 28.3995 45.0134 27.449C45.0134 26.4984 44.2428 25.7278 43.2922 25.7278C42.3417 25.7278 41.5711 26.4984 41.5711 27.449C41.5711 28.3995 42.3417 29.1701 43.2922 29.1701Z" fill="white"/>
<g clip-path="url(#clip0_4061_939)">
<path d="M97.1267 8.5H74.1556L70 27.5H92.8557L93.7792 23.2394H76.0025L76.6951 20.0152H92.1631L93.0866 15.8697H77.6186L78.3112 12.7606H96.0878L97.1267 8.5ZM119.059 8.5H133.142C134.758 8.5 136.143 9.07576 136.951 10.1121C137.875 11.1485 138.105 12.5303 137.759 14.0273L137.528 15.2939H132.449L132.565 14.9485C132.68 14.2576 132.565 13.797 132.218 13.3364C131.872 12.8758 131.295 12.6455 130.718 12.6455H119.636C118.944 12.6455 118.366 12.8758 117.789 13.3364C117.212 13.797 116.866 14.2576 116.75 14.9485L115.365 21.0515C115.25 21.6273 115.365 22.203 115.711 22.6636C116.058 23.1242 116.635 23.2394 117.212 23.3545H128.294C128.986 23.3545 129.563 23.1242 130.141 22.6636C130.718 22.203 131.064 21.7424 131.179 21.0515L131.295 20.7061H136.374L136.143 21.8576C135.797 23.3545 134.989 24.7364 133.488 25.7727C132.103 26.8091 130.602 27.3848 128.871 27.3848H114.788C113.172 27.3848 111.902 26.8091 110.979 25.7727C110.055 24.7364 109.824 23.3545 110.171 21.8576L111.902 13.9121C112.248 12.4152 113.056 11.0333 114.557 9.99697C115.827 9.07576 117.327 8.5 119.059 8.5ZM158.306 8.5H153.227L137.297 27.5H142.723L146.186 23.3545H158.768L160.384 27.5H165.809L158.306 8.5ZM149.649 19.3242L154.843 13.2212L157.267 19.3242H149.649ZM172.504 8.5H190.743C192.59 8.5 193.975 9.07576 194.898 10.2273C195.937 11.3788 196.284 12.8758 195.822 14.4879C195.476 15.9848 194.668 17.3667 193.282 18.5182C191.897 19.6697 190.396 20.2455 188.78 20.4758L193.282 27.5H187.395L183.355 20.5909H174.928L173.428 27.5H168.349L172.504 8.5ZM176.66 12.7606L175.852 16.4455H188.55C189.127 16.4455 189.704 16.2152 190.05 15.8697C190.512 15.5242 190.743 15.0636 190.858 14.4879C190.974 13.9121 190.858 13.4515 190.627 13.1061C190.396 12.7606 189.935 12.5303 189.358 12.6455H176.66V12.7606ZM225.604 8.5H205.864C204.248 8.5 202.632 9.07576 201.247 10.1121C199.862 11.1485 198.939 12.5303 198.592 14.0273L196.861 21.9727C196.514 23.4697 196.861 24.8515 197.669 25.8879C198.592 26.9242 199.862 27.5 201.478 27.5H221.91L224.334 16.3303H213.137L212.213 20.3606H218.562L217.87 23.3545H204.018C203.325 23.3545 202.863 23.1242 202.517 22.6636C202.171 22.203 202.055 21.7424 202.171 21.0515L203.556 14.9485C203.671 14.2576 204.018 13.797 204.595 13.3364C205.172 12.8758 205.749 12.6455 206.442 12.6455H224.68L225.604 8.5ZM249.152 8.5H234.607C232.991 8.5 231.375 9.07576 229.99 10.1121C228.605 11.1485 227.681 12.5303 227.335 14.0273L225.604 21.9727C225.257 23.4697 225.604 24.8515 226.412 25.8879C227.335 26.9242 228.605 27.5 230.221 27.5H244.765C246.381 27.5 247.997 26.9242 249.383 25.8879C250.768 24.8515 251.691 23.4697 252.038 21.9727L253.769 14.0273C254.115 12.5303 253.885 11.1485 252.961 10.1121C252.153 9.07576 250.883 8.5 249.152 8.5ZM233.453 13.4515C234.03 12.9909 234.607 12.7606 235.3 12.7606H246.843C247.536 12.7606 247.997 12.9909 248.344 13.4515C248.69 13.9121 248.806 14.3727 248.69 15.0636L247.305 21.1667C247.189 21.7424 246.843 22.3182 246.266 22.7788C245.689 23.2394 245.112 23.3545 244.419 23.4697H232.876C232.183 23.4697 231.721 23.2394 231.375 22.7788C231.029 22.3182 230.913 21.8576 231.029 21.1667L232.414 15.0636C232.529 14.3727 232.876 13.797 233.453 13.4515Z" fill="white"/>
</g>
<defs>
<clipPath id="clip0_4061_939">
<rect width="184" height="19" fill="white" transform="translate(70 8.5)"/>
</clipPath>
</defs>
</svg>
